<?xml version="1.0" encoding="UTF-8" standalone="no"?>
<svg width="456" height="456" viewBox="0 0 456 456" version="1.1" xmlns="http://www.w3.org/2000/svg">
    <defs>
        <linearGradient id="splashBg" x1="0%" y1="0%" x2="100%" y2="100%">
            <stop offset="0%" style="stop-color:#0f172a;stop-opacity:1" />
            <stop offset="100%" style="stop-color:#1e293b;stop-opacity:1" />
        </linearGradient>
        <linearGradient id="splashShield" x1="0%" y1="0%" x2="0%" y2="100%">
            <stop offset="0%" style="stop-color:#34d399;stop-opacity:1" />
            <stop offset="100%" style="stop-color:#22c55e;stop-opacity:1" />
        </linearGradient>
    </defs>

    <!-- Background -->
    <rect x="0" y="0" width="456" height="456" fill="url(#splashBg)" />

    <!-- Shield with network -->
    <path d="M 228 120
             C 228 120, 190 132, 150 132
             C 150 132, 150 200, 150 250
             C 150 310, 200 340, 228 370
             C 256 340, 306 310, 306 250
             C 306 200, 306 132, 306 132
             C 266 132, 228 120, 228 120 Z"
          fill="url(#splashShield)"
          opacity="0.95"/>

    <!-- Center node -->
    <circle cx="228" cy="215" r="16" fill="#ffffff"/>

    <!-- First level subdomains -->
    <circle cx="180" cy="190" r="12" fill="#60a5fa"/>
    <circle cx="276" cy="190" r="12" fill="#60a5fa"/>
    <circle cx="228" cy="165" r="12" fill="#60a5fa"/>

    <!-- Second level -->
    <circle cx="165" cy="250" r="10" fill="#818cf8"/>
    <circle cx="195" cy="255" r="10" fill="#818cf8"/>
    <circle cx="261" cy="255" r="10" fill="#818cf8"/>
    <circle cx="291" cy="250" r="10" fill="#818cf8"/>
    <circle cx="228" cy="270" r="10" fill="#818cf8"/>

    <!-- Connection lines -->
    <line x1="228" y1="215" x2="180" y2="190" stroke="#60a5fa" stroke-width="3" opacity="0.6"/>
    <line x1="228" y1="215" x2="276" y2="190" stroke="#60a5fa" stroke-width="3" opacity="0.6"/>
    <line x1="228" y1="215" x2="228" y2="165" stroke="#60a5fa" stroke-width="3" opacity="0.6"/>

    <line x1="180" y1="190" x2="165" y2="250" stroke="#818cf8" stroke-width="2" opacity="0.5"/>
    <line x1="180" y1="190" x2="195" y2="255" stroke="#818cf8" stroke-width="2" opacity="0.5"/>
    <line x1="276" y1="190" x2="261" y2="255" stroke="#818cf8" stroke-width="2" opacity="0.5"/>
    <line x1="276" y1="190" x2="291" y2="250" stroke="#818cf8" stroke-width="2" opacity="0.5"/>
    <line x1="228" y1="215" x2="228" y2="270" stroke="#818cf8" stroke-width="2" opacity="0.5"/>

    <!-- Magnifying glass -->
    <circle cx="285" cy="300" r="30" fill="none" stroke="#22c55e" stroke-width="8"/>
    <line x1="306" y1="321" x2="328" y2="343" stroke="#22c55e" stroke-width="10" stroke-linecap="round"/>
    <circle cx="285" cy="300" r="30" fill="none" stroke="#34d399" stroke-width="2" opacity="0.6"/>
</svg>
