<?xml version="1.0" encoding="UTF-8" standalone="no"?>
<svg width="456" height="456" viewBox="0 0 456 456" version="1.1" xmlns="http://www.w3.org/2000/svg">
    <defs>
        <linearGradient id="fgGradient" x1="0%" y1="0%" x2="0%" y2="100%">
            <stop offset="0%" style="stop-color:#34d399;stop-opacity:1" />
            <stop offset="100%" style="stop-color:#22c55e;stop-opacity:1" />
        </linearGradient>
    </defs>

    <!-- Simplified foreground - Shield with scanner icon -->
    <!-- Shield shape -->
    <path d="M 228 100
             C 228 100, 185 113, 140 113
             C 140 113, 140 185, 140 235
             C 140 305, 190 340, 228 375
             C 266 340, 316 305, 316 235
             C 316 185, 316 113, 316 113
             C 271 113, 228 100, 228 100 Z"
          fill="url(#fgGradient)"/>

    <!-- Network nodes -->
    <circle cx="228" cy="210" r="14" fill="#ffffff"/>
    <circle cx="178" cy="185" r="10" fill="#60a5fa"/>
    <circle cx="278" cy="185" r="10" fill="#60a5fa"/>
    <circle cx="228" cy="160" r="10" fill="#60a5fa"/>

    <!-- Connection lines -->
    <line x1="228" y1="210" x2="178" y2="185" stroke="#60a5fa" stroke-width="3" opacity="0.7"/>
    <line x1="228" y1="210" x2="278" y2="185" stroke="#60a5fa" stroke-width="3" opacity="0.7"/>
    <line x1="228" y1="210" x2="228" y2="160" stroke="#60a5fa" stroke-width="3" opacity="0.7"/>

    <!-- Magnifying glass -->
    <circle cx="280" cy="290" r="26" fill="none" stroke="#ffffff" stroke-width="7"/>
    <line x1="298" y1="308" x2="318" y2="328" stroke="#ffffff" stroke-width="9" stroke-linecap="round"/>
</svg>
