<?xml version="1.0" encoding="UTF-8" standalone="no"?>
<svg width="456" height="456" viewBox="0 0 456 456" version="1.1" xmlns="http://www.w3.org/2000/svg">
    <!-- Background with gradient -->
    <defs>
        <linearGradient id="bgGradient" x1="0%" y1="0%" x2="100%" y2="100%">
            <stop offset="0%" style="stop-color:#0f172a;stop-opacity:1" />
            <stop offset="100%" style="stop-color:#1e293b;stop-opacity:1" />
        </linearGradient>
        <linearGradient id="shieldGradient" x1="0%" y1="0%" x2="0%" y2="100%">
            <stop offset="0%" style="stop-color:#34d399;stop-opacity:1" />
            <stop offset="100%" style="stop-color:#22c55e;stop-opacity:1" />
        </linearGradient>
    </defs>

    <!-- Background -->
    <rect x="0" y="0" width="456" height="456" fill="url(#bgGradient)" rx="100" />

    <!-- Shield shape (security) -->
    <path d="M 228 80
             C 228 80, 180 95, 120 95
             C 120 95, 120 180, 120 240
             C 120 320, 180 360, 228 400
             C 276 360, 336 320, 336 240
             C 336 180, 336 95, 336 95
             C 276 95, 228 80, 228 80 Z"
          fill="url(#shieldGradient)"
          opacity="0.9"/>

    <!-- Network nodes (subdomain structure) -->
    <!-- Center node -->
    <circle cx="228" cy="200" r="16" fill="#ffffff" opacity="0.95"/>

    <!-- First level subdomains -->
    <circle cx="168" cy="170" r="12" fill="#60a5fa" opacity="0.9"/>
    <circle cx="288" cy="170" r="12" fill="#60a5fa" opacity="0.9"/>
    <circle cx="228" cy="140" r="12" fill="#60a5fa" opacity="0.9"/>

    <!-- Second level subdomains -->
    <circle cx="148" cy="240" r="10" fill="#818cf8" opacity="0.85"/>
    <circle cx="188" cy="250" r="10" fill="#818cf8" opacity="0.85"/>
    <circle cx="268" cy="250" r="10" fill="#818cf8" opacity="0.85"/>
    <circle cx="308" cy="240" r="10" fill="#818cf8" opacity="0.85"/>
    <circle cx="228" cy="270" r="10" fill="#818cf8" opacity="0.85"/>

    <!-- Connection lines -->
    <line x1="228" y1="200" x2="168" y2="170" stroke="#60a5fa" stroke-width="3" opacity="0.6"/>
    <line x1="228" y1="200" x2="288" y2="170" stroke="#60a5fa" stroke-width="3" opacity="0.6"/>
    <line x1="228" y1="200" x2="228" y2="140" stroke="#60a5fa" stroke-width="3" opacity="0.6"/>

    <line x1="168" y1="170" x2="148" y2="240" stroke="#818cf8" stroke-width="2" opacity="0.5"/>
    <line x1="168" y1="170" x2="188" y2="250" stroke="#818cf8" stroke-width="2" opacity="0.5"/>
    <line x1="288" y1="170" x2="268" y2="250" stroke="#818cf8" stroke-width="2" opacity="0.5"/>
    <line x1="288" y1="170" x2="308" y2="240" stroke="#818cf8" stroke-width="2" opacity="0.5"/>
    <line x1="228" y1="200" x2="228" y2="270" stroke="#818cf8" stroke-width="2" opacity="0.5"/>

    <!-- Magnifying glass (scanner) -->
    <circle cx="300" cy="310" r="32" fill="none" stroke="#22c55e" stroke-width="8"/>
    <line x1="322" y1="332" x2="350" y2="360" stroke="#22c55e" stroke-width="10" stroke-linecap="round"/>

    <!-- Accent glow -->
    <circle cx="300" cy="310" r="32" fill="none" stroke="#34d399" stroke-width="2" opacity="0.5"/>
</svg>
